<svg width="256" height="256" viewBox="0 0 256 256" fill="none" xmlns="http://www.w3.org/2000/svg">
<path fill-rule="evenodd" clip-rule="evenodd" d="M129.849 70.0771C128.085 65.1266 121.426 63.4816 117.37 66.9942L99.6595 86.6307C98.9766 87.222 98.4705 87.7629 98.1247 88.2602L84.539 84.9039C81.6457 84.1891 78.6116 86.1527 77.762 89.2897L63.512 141.909C62.7832 144.6 63.8962 147.352 66.1779 148.501L164.168 197.82C167.344 199.419 171.264 197.257 172.064 193.466L188.366 116.241C189.007 113.203 187.349 110.302 184.581 109.618L137.546 97.9989C137.481 97.6988 137.385 97.3705 137.258 97.0118L129.849 70.0771Z" fill="#91E291"/>
<path fill-rule="evenodd" clip-rule="evenodd" d="M107.726 58.5911L108.445 57.9707C114.563 52.6932 122.008 51.7862 127.87 53.2384C133.732 54.6907 139.788 58.9425 142.475 66.4013L142.657 66.9048L148.23 86.8998L186.761 96.4452C196.841 98.9425 202.524 109.311 200.352 119.684L184.617 194.858C181.924 207.726 168.257 215.751 156.611 209.899L60.6713 161.693C52.4102 157.542 48.6268 147.815 51.1021 138.625L64.8962 87.4083C67.7756 76.7175 78.3395 69.5853 88.8803 72.1966L94.2243 73.5205L107.726 58.5911ZM98.3207 89.7913L85.0284 86.4984C82.1976 85.7971 79.2361 87.7038 78.4138 90.7571L64.6196 141.973C63.9141 144.593 65.0097 147.275 67.2436 148.397L163.183 196.603C166.293 198.166 170.12 196.068 170.892 192.377L186.627 117.203C187.246 114.246 185.617 111.418 182.909 110.747L136.89 99.3465C136.826 99.0542 136.732 98.7343 136.606 98.3847L129.291 72.1416C127.553 67.3174 121.038 65.7035 117.081 69.1168L99.817 88.2073C99.1509 88.7819 98.6574 89.3077 98.3207 89.7913Z" fill="#91E291"/>
</svg>
