<svg width="49" height="49" viewBox="0 0 49 49" fill="none" xmlns="http://www.w3.org/2000/svg">
<g clip-path="url(#clip0_2033_3)">
<path d="M20.3661 5.62851C21.6985 5.72553 23.1394 6.35002 24.049 7.64897L24.2232 7.91713L24.277 8.00589L24.3227 8.09795L27.0577 13.5491L38.9915 14.4181C41.2514 14.5828 42.8731 16.4251 42.887 18.57L42.8832 18.7784L42.0233 39.2548C41.9067 42.0248 39.1688 44.164 36.3628 43.3516L7.07402 34.8718C5.08342 34.2952 3.87737 32.4044 4.08285 30.4073L5.5336 16.322C5.77292 13.9985 7.85423 12.1509 10.2936 12.3284L12.5387 12.4919L15.8728 7.61625L15.9761 7.46385L16.0996 7.3256C17.2809 5.99504 18.9453 5.52518 20.3661 5.62851Z" fill="white" stroke="white" stroke-width="5.625"/>
<path d="M20.2553 6.70477C21.3216 6.78241 22.4447 7.27996 23.1462 8.28142L23.2814 8.48824L23.3133 8.54224L23.3419 8.59893L26.343 14.5814L38.8807 15.4943C40.5651 15.6172 41.7842 16.9926 41.7944 18.6075L41.7921 18.7643L40.9323 39.2397C40.8446 41.3285 38.7861 42.9209 36.6969 42.3159L7.40816 33.8352C5.92298 33.4049 5.01455 31.9905 5.16926 30.4864L6.62001 16.4012C6.80032 14.6505 8.36475 13.2724 10.1828 13.4047L13.0717 13.615L16.7721 8.20245L16.8358 8.10957L16.9105 8.02433C17.8194 7.00036 19.118 6.62209 20.2553 6.70477Z" fill="#91E291" stroke="#91E291" stroke-width="3.4534"/>
</g>
<defs>
<clipPath id="clip0_2033_3">
<rect width="46.5105" height="46.5105" fill="white" transform="translate(0.863813 0.98999)"/>
</clipPath>
</defs>
</svg>
