<svg width="48" height="48" viewBox="0 0 48 48" fill="none" xmlns="http://www.w3.org/2000/svg">
<path fill-rule="evenodd" clip-rule="evenodd" d="M22.9683 8.23377C22.3652 6.94642 20.5298 6.67567 19.5285 7.72636L15.2675 13.4716C15.0989 13.6485 14.9766 13.8072 14.8964 13.9501L11.1515 13.3976C10.354 13.28 9.58776 13.8872 9.44012 14.7538L6.96374 29.2906C6.83709 30.034 7.20795 30.7463 7.85201 30.9965L35.5121 41.7426C36.4086 42.0909 37.4082 41.4074 37.5257 40.3659L39.9182 19.1508C40.0123 18.3163 39.4909 17.578 38.7278 17.4655L25.7628 15.553C25.7375 15.4739 25.7033 15.3879 25.6596 15.2947L22.9683 8.23377Z" fill="#91E291"/>
<path fill-rule="evenodd" clip-rule="evenodd" d="M16.7144 5.71309L16.892 5.52744C18.4028 3.94824 20.3841 3.51151 22.0001 3.75096C23.616 3.99041 25.3566 4.97867 26.2731 6.91753L26.3349 7.04841L28.3526 12.2882L38.9742 13.8621C41.753 14.2738 43.5512 16.9187 43.2348 19.768L40.9417 40.4162C40.5492 43.9507 37.0768 46.4649 33.7896 45.1904L6.71043 34.6911C4.37871 33.787 3.10849 31.2656 3.53733 28.7271L5.92724 14.5799C6.42611 11.6268 9.08614 9.43324 11.9919 9.86381L13.465 10.0821L16.7144 5.71309ZM14.9887 14.3573L11.3245 13.8143C10.5442 13.6987 9.79605 14.2886 9.65357 15.132L7.26366 29.2792C7.14144 30.0028 7.50577 30.6966 8.1363 30.9411L35.2155 41.4404C36.0932 41.7806 37.0694 41.1168 37.182 40.1031L39.475 19.4548C39.5652 18.6426 39.0535 17.9232 38.3068 17.8126L25.6211 15.9328C25.5962 15.8557 25.5625 15.772 25.5196 15.6812L22.8714 8.80408C22.2787 7.55008 20.4828 7.28396 19.5057 8.30534L15.3507 13.8921C15.1862 14.064 15.0669 14.2183 14.9887 14.3573Z" fill="#5A6D97"/>
</svg>
