<svg width="256" height="256" viewBox="0 0 256 256" fill="none" xmlns="http://www.w3.org/2000/svg">
<path d="M103.693 45.6575C103.45 45.8858 103.207 46.1142 102.964 46.3425C104.236 49.4894 104.538 52.8343 104.598 56.0264C104.753 65.2964 101.412 73.6344 96.774 77.0772C95.071 77.5735 89.464 81.0118 84.425 83.7273C79.1548 86.78 73.7056 89.6425 67.2447 95.5679C52.883 110.769 52.619 129.605 58.9934 145.389C65.5339 162.616 86.0567 174.016 102.02 172.619C129.568 169.752 142.069 152.294 147.526 133.381C148.289 129.458 148.375 124.845 146.144 121.588C145.821 121.671 145.498 121.754 145.175 121.837C144.569 125.214 142.26 127.387 139.933 129.332C128.36 138.205 110.005 142.41 104.286 139.271C97.611 136.93 96.2314 134.34 94.2485 130.338C92.3301 126.514 92.9167 120.394 93.0532 119.176C94.8685 116.238 99.1683 111.79 103.303 107.222C107.546 102.249 112.027 98.4239 116.867 88.6307C122.013 75.1006 118.088 62.2488 111.791 53.4341C109.543 50.3594 106.926 47.4917 103.693 45.6575Z" fill="url(#paint0_linear_2001_17)"/>
<path d="M152.051 211.342C152.294 211.114 152.537 210.886 152.78 210.658C151.508 207.511 151.206 204.166 151.146 200.974C150.991 191.704 154.332 183.366 158.97 179.923C160.673 179.427 166.28 175.988 171.319 173.273C176.589 170.22 182.038 167.357 188.499 161.432C202.861 146.231 203.125 127.395 196.75 111.611C190.21 94.3838 169.687 82.9845 153.724 84.3809C126.176 87.2479 113.675 104.706 108.217 123.619C107.455 127.542 107.369 132.155 109.6 135.412C109.923 135.329 110.245 135.246 110.568 135.163C111.175 131.786 113.484 129.613 115.81 127.668C127.384 118.795 145.739 114.59 151.458 117.729C158.133 120.07 159.512 122.66 161.495 126.662C163.414 130.486 162.827 136.606 162.69 137.824C160.875 140.762 156.575 145.21 152.441 149.778C148.197 154.751 143.717 158.576 138.877 168.369C133.731 181.899 137.656 194.751 143.952 203.566C146.201 206.641 148.818 209.508 152.051 211.342Z" fill="url(#paint1_linear_2001_17)"/>
<defs>
<linearGradient id="paint0_linear_2001_17" x1="109.962" y1="46" x2="109.962" y2="156" gradientUnits="userSpaceOnUse">
<stop stop-color="#FF6A00"/>
<stop offset="1" stop-color="#FF4A4A"/>
</linearGradient>
<linearGradient id="paint1_linear_2001_17" x1="145.782" y1="101" x2="145.782" y2="211" gradientUnits="userSpaceOnUse">
<stop stop-color="#4252FF"/>
<stop offset="1" stop-color="#6A99FF"/>
</linearGradient>
</defs>
</svg>
