<svg width="256" height="256" viewBox="0 0 256 256" fill="none" xmlns="http://www.w3.org/2000/svg">
<path d="M103.226 53.1206C103.912 50.6656 104.255 49.438 104.985 48.6292C105.655 47.8868 106.546 47.3833 107.525 47.1946C108.591 46.9889 109.811 47.334 112.25 48.0241L209.956 75.668C212.396 76.3581 213.615 76.7032 214.419 77.4379C215.156 78.1123 215.657 79.0094 215.844 79.9945C216.048 81.0677 215.706 82.2952 215.02 84.7503L183.28 198.392C182.594 200.847 182.252 202.075 181.522 202.884C180.852 203.626 179.96 204.129 178.982 204.318C177.915 204.524 176.696 204.179 174.256 203.489L76.5501 175.845C74.1109 175.155 72.8913 174.81 72.0876 174.075C71.35 173.4 70.8498 172.503 70.6622 171.518C70.4579 170.445 70.8007 169.218 71.4864 166.762L103.226 53.1206Z" fill="#A7D989"/>
<path d="M60.7938 47.3639C60.816 44.8138 60.8271 43.5387 61.3209 42.5655C61.7741 41.6723 62.5032 40.9513 63.3985 40.5109C64.3739 40.031 65.6408 40.0422 68.1745 40.0646L169.664 40.9607C172.197 40.9831 173.464 40.9942 174.431 41.4912C175.319 41.9474 176.035 42.6812 176.473 43.5823C176.949 44.564 176.938 45.8391 176.916 48.3892L175.887 166.431C175.865 168.981 175.854 170.256 175.36 171.23C174.907 172.123 174.178 172.844 173.283 173.284C172.307 173.764 171.04 173.753 168.507 173.731L67.0172 172.834C64.4835 172.812 63.2167 172.801 62.2498 172.304C61.3623 171.848 60.6459 171.114 60.2083 170.213C59.7316 169.231 59.7427 167.956 59.7649 165.406L60.7938 47.3639Z" fill="#D98989"/>
<path d="M40.6075 84.9245C40.0508 82.4366 39.7725 81.1926 40.0325 80.1317C40.2712 79.1579 40.8175 78.2884 41.5893 77.654C42.4302 76.9627 43.6661 76.6826 46.138 76.1223L145.152 53.6802C147.624 53.12 148.859 52.8398 149.914 53.1016C150.881 53.3418 151.745 53.8916 152.375 54.6684C153.062 55.5147 153.34 56.7587 153.897 59.2466L179.664 174.409C180.221 176.897 180.499 178.141 180.239 179.202C180.001 180.176 179.454 181.045 178.683 181.68C177.842 182.371 176.606 182.651 174.134 183.211L75.1202 205.653C72.6483 206.214 71.4124 206.494 70.3583 206.232C69.3908 205.992 68.5269 205.442 67.8966 204.665C67.2098 203.819 66.9314 202.575 66.3748 200.087L40.6075 84.9245Z" fill="#89D4D9"/>
<path d="M67.8721 90.6788C67.8721 88.1286 67.8721 86.8535 68.3574 85.876C68.8028 84.9788 69.5255 84.2513 70.4169 83.803C71.3881 83.3146 72.655 83.3146 75.1889 83.3146H176.588C179.122 83.3146 180.389 83.3146 181.36 83.803C182.252 84.2513 182.974 84.9788 183.42 85.876C183.905 86.8535 183.905 88.1286 183.905 90.6788V208.636C183.905 211.186 183.905 212.461 183.42 213.439C182.974 214.336 182.252 215.063 181.36 215.512C180.389 216 179.122 216 176.588 216H75.1889C72.655 216 71.3881 216 70.4169 215.512C69.5255 215.063 68.8028 214.336 68.3574 213.439C67.8721 212.461 67.8721 211.186 67.8721 208.636V90.6788Z" fill="white"/>
<path d="M80.4015 107.439C80.4015 105.622 81.8649 104.15 83.67 104.15H138.146C139.951 104.15 141.414 105.622 141.414 107.439C141.414 109.256 139.951 110.729 138.146 110.729H83.67C81.8649 110.729 80.4015 109.256 80.4015 107.439Z" fill="#262626"/>
<path d="M80.4015 133.209C80.4015 131.392 81.8649 129.919 83.67 129.919H138.146C139.951 129.919 141.414 131.392 141.414 133.209C141.414 135.026 139.951 136.498 138.146 136.498H83.67C81.8649 136.498 80.4015 135.026 80.4015 133.209Z" fill="#262626"/>
<path d="M108.184 148.013C108.184 146.196 109.647 144.723 111.453 144.723H165.928C167.733 144.723 169.197 146.196 169.197 148.013C169.197 149.829 167.733 151.302 165.928 151.302H111.453C109.647 151.302 108.184 149.829 108.184 148.013Z" fill="#262626"/>
<path d="M107.095 173.782C107.095 171.965 108.558 170.492 110.363 170.492H164.839C166.644 170.492 168.107 171.965 168.107 173.782C168.107 175.599 166.644 177.072 164.839 177.072H110.363C108.558 177.072 107.095 175.599 107.095 173.782Z" fill="#262626"/>
<path d="M107.095 120.324C107.095 125.623 102.826 129.919 97.5614 129.919C92.2963 129.919 88.0281 125.623 88.0281 120.324C88.0281 115.025 92.2963 110.729 97.5614 110.729C102.826 110.729 107.095 115.025 107.095 120.324Z" fill="#262626"/>
<path d="M160.481 160.897C160.481 166.196 156.213 170.492 150.948 170.492C145.683 170.492 141.414 166.196 141.414 160.897C141.414 155.598 145.683 151.302 150.948 151.302C156.213 151.302 160.481 155.598 160.481 160.897Z" fill="#262626"/>
<path d="M85.8491 195.165C85.8491 193.348 87.3125 191.875 89.1177 191.875H162.115C163.92 191.875 165.384 193.348 165.384 195.165C165.384 196.982 163.92 198.455 162.115 198.455H89.1177C87.3125 198.455 85.8491 196.982 85.8491 195.165Z" fill="#262626"/>
</svg>
