<svg width="256" height="256" viewBox="0 0 256 256" fill="none" xmlns="http://www.w3.org/2000/svg">
<rect x="65" y="81.8582" width="114.572" height="111.142" rx="24" fill="#B7ED96" stroke="#262626" stroke-width="16"/>
<rect x="122.286" y="73.8582" width="65.2858" height="63.5708" fill="white"/>
<path d="M121.096 201V137.429" stroke="#262626" stroke-width="16"/>
<path d="M57 138.091H122.286" stroke="#262626" stroke-width="16"/>
<path d="M130.923 98.1123C144.512 98.1125 155.162 108.785 155.162 121.505C155.162 134.225 144.512 144.898 130.923 144.898C117.333 144.898 106.682 134.225 106.682 121.505C106.683 108.785 117.333 98.1123 130.923 98.1123Z" fill="white" stroke="#262626" stroke-width="16"/>
<path d="M180.76 90.4492C194.349 90.4494 204.999 101.122 205 113.842C205 126.562 194.35 137.235 180.76 137.235C167.171 137.235 156.52 126.562 156.52 113.842C156.52 101.122 167.171 90.4492 180.76 90.4492Z" fill="white" stroke="#262626" stroke-width="16"/>
<path d="M139.984 47C153.573 47.0002 164.223 57.6727 164.223 70.3926C164.223 83.1127 153.573 93.786 139.984 93.7861C126.395 93.7861 115.744 83.1128 115.744 70.3926C115.744 57.6726 126.395 47 139.984 47Z" fill="white" stroke="#262626" stroke-width="16"/>
</svg>
